# Blender v2.90.1 OBJ File: ''
# www.blender.org
mtllib cutkey3.mtl
o key.002
v -7.996342 -56.136238 -4.918787
v -0.741042 -58.615776 -5.141264
v -0.940999 -59.403030 -0.031772
v -10.035359 -56.893322 -0.058483
v -0.741042 -58.615776 5.200660
v -7.996342 -56.136238 4.918768
v -0.741042 -23.922363 -5.141258
v -7.996342 -22.772358 -4.918782
v 10.035359 -23.529440 -0.058477
v 7.996342 -22.772358 -4.918782
v -10.035359 -23.529440 -0.058477
v 7.996342 -22.772358 4.918774
v -7.996342 -22.772358 4.918774
v -0.741042 -23.922371 5.200665
v 7.996342 -47.799507 -4.918787
v 10.035359 -48.556591 -0.058482
v 10.035359 -56.893322 -0.058483
v 7.996342 -56.136238 -4.918787
v -7.996342 -47.799507 -4.918787
v -0.741042 -49.946835 -5.141263
v -10.035359 -48.556591 -0.058482
v -7.996342 -47.799507 4.918769
v -0.741042 -49.946835 5.200661
v 7.996342 -47.799507 4.918769
v 7.996342 -56.136238 4.918768
v 7.996342 -41.334244 -4.918785
v 10.035359 -42.091316 -0.058480
v -7.996342 -41.334240 -25.716604
v -0.741042 -43.223927 -27.005379
v -0.741042 -49.946831 -27.005381
v -7.996342 -47.799503 -25.716604
v -10.035359 -42.091316 -0.058480
v -7.996342 -41.334244 -4.918785
v -7.996342 -41.334244 4.918771
v -0.741042 -43.223930 5.200662
v 7.996342 -41.334244 4.918771
v 7.996342 -29.683786 -4.918783
v 10.035359 -30.440863 -0.058479
v -7.996342 -29.683786 -4.918783
v -0.741042 -31.109213 -5.141260
v -0.741042 -43.223930 -5.141262
v -10.035359 -30.440863 -0.058479
v -7.996342 -29.683786 4.918773
v -0.741042 -31.109213 5.200664
v 7.996342 -29.683786 4.918773
v -7.996342 -22.772354 -25.716600
v -0.741042 -23.922359 -27.005375
v -0.741042 -31.109209 -27.005377
v -7.996342 -29.683783 -25.716602
v 7.996342 -47.799503 -25.716604
v 7.996342 -41.334240 -25.716604
v 7.996342 -29.683783 -25.716602
v 7.996342 -22.772354 -25.716600
vt 0.625000 0.750000
vt 0.625000 0.873816
vt 0.625000 0.873816
vt 0.625000 0.750000
vt 0.375000 0.873816
vt 0.375000 0.750000
vt 0.375000 0.750000
vt 0.375000 0.873816
vt 0.375000 1.000000
vt 0.375000 1.000000
vt 0.625000 1.000000
vt 0.625000 1.000000
vt 0.625000 0.750000
vt 0.625000 0.873816
vt 0.375000 0.873816
vt 0.375000 0.750000
vt 0.375000 1.000000
vt 0.625000 1.000000
vt 0.625000 0.750000
vt 0.625000 0.873816
vt 0.375000 0.873816
vt 0.375000 0.750000
vt 0.375000 1.000000
vt 0.625000 1.000000
vt 0.625000 0.750000
vt 0.625000 0.873816
vt 0.375000 0.873816
vt 0.375000 0.750000
vt 0.375000 1.000000
vt 0.625000 1.000000
vt 0.625000 0.750000
vt 0.625000 0.750000
vt 0.375000 0.750000
vt 0.375000 0.750000
vt 0.625000 0.750000
vt 0.625000 0.750000
vt 0.375000 0.750000
vt 0.375000 0.750000
vt 0.488340 0.750000
vt 0.488340 0.873816
vt 0.488340 1.000000
vt 0.488340 0.750000
vt 0.488340 1.000000
vt 0.488340 0.750000
vt 0.488340 0.750000
vt 0.488340 1.000000
vt 0.488340 0.750000
vt 0.488340 0.750000
vt 0.488340 1.000000
vt 0.488340 0.750000
vt 0.488340 0.750000
vt 0.488340 1.000000
vt 0.488340 0.750000
vn 0.9221 0.0000 -0.3869
vn -0.9221 0.0000 -0.3869
vn -0.9254 -0.0000 0.3791
vn 0.9254 -0.0000 0.3791
vn 1.0000 0.0000 0.0000
vn -1.0000 0.0000 0.0000
vn -0.2877 -0.9346 -0.2094
vn 0.0160 -0.9783 -0.2067
vn -0.0163 -0.9780 -0.2079
vn -0.2892 -0.9351 0.2049
vn -0.0160 -0.9789 0.2035
vn 0.0158 -0.9792 0.2023
vn -0.0306 0.0000 -0.9995
vn -0.0002 0.0000 -1.0000
vn 0.0003 0.0000 -1.0000
vn -0.0002 -0.0000 1.0000
vn -0.0388 -0.0000 0.9992
vn 0.0003 -0.0000 1.0000
vn -0.1749 0.0000 -0.9846
vn -0.0008 -0.0000 -1.0000
vn 0.0011 0.0000 -1.0000
vn -0.0001 0.0000 -1.0000
vn 0.0002 0.0000 -1.0000
vn 0.0002 -0.0000 1.0000
vn -0.0005 0.0000 -1.0000
vn 0.0007 0.0000 -1.0000
vn -0.0001 -0.0000 1.0000
vn 0.2520 0.9677 0.0000
vn 0.0001 1.0000 0.0000
vn -0.0010 1.0000 -0.0000
vn -0.0002 -1.0000 0.0000
vn -0.2838 -0.9589 0.0000
vn 0.0011 -1.0000 -0.0000
vn 0.1566 0.9877 0.0000
vn -0.0006 1.0000 0.0000
vn -0.0001 -1.0000 -0.0000
vn -0.1928 -0.9812 -0.0000
vn 0.0007 -1.0000 -0.0000
vn -0.1305 0.9914 0.0000
vn 0.1459 0.0000 -0.9893
vn 0.1610 -0.9870 -0.0000
vn 0.0255 0.0000 -0.9997
vn -0.2114 0.9774 0.0000
vn 0.2387 -0.9711 0.0000
vn 0.2426 -0.9509 -0.1920
vn 0.2437 -0.9515 0.1878
vn 0.0322 -0.0000 0.9995
usemtl initialShadingGroup
s off
f 15/1/1 16/2/1 17/3/1 18/4/1
f 21/5/2 19/6/2 1/7/2 4/8/2
f 22/9/3 21/5/3 4/8/3 6/10/3
f 16/2/4 24/11/4 25/12/4 17/3/4
f 26/13/1 27/14/1 16/2/1 15/1/1
f 32/15/2 33/16/2 19/6/2 21/5/2
f 34/17/3 32/15/3 21/5/3 22/9/3
f 27/14/4 36/18/4 24/11/4 16/2/4
f 37/19/1 38/20/1 27/14/1 26/13/1
f 42/21/2 39/22/2 33/16/2 32/15/2
f 43/23/3 42/21/3 32/15/3 34/17/3
f 38/20/4 45/24/4 36/18/4 27/14/4
f 10/25/1 9/26/1 38/20/1 37/19/1
f 11/27/2 8/28/2 39/22/2 42/21/2
f 13/29/3 11/27/3 42/21/3 43/23/3
f 9/26/4 12/30/4 45/24/4 38/20/4
f 26/13/5 15/1/5 50/31/5 51/32/5
f 19/6/6 33/16/6 28/33/6 31/34/6
f 10/25/5 37/19/5 52/35/5 53/36/5
f 39/22/6 8/28/6 46/37/6 49/38/6
s 1
f 1/7/7 2/39/8 3/40/9 4/8/7
f 4/8/10 3/40/11 5/41/12 6/10/10
f 19/6/13 20/42/14 2/39/15 1/7/13
f 23/43/16 22/9/17 6/10/17 5/41/18
f 28/33/19 29/44/20 30/45/21 31/34/19
f 35/46/16 34/17/17 22/9/17 23/43/18
f 39/22/13 40/47/22 41/48/23 33/16/13
f 44/49/16 43/23/17 34/17/17 35/46/24
f 46/37/19 47/50/25 48/51/26 49/38/19
f 14/52/27 13/29/17 43/23/17 44/49/24
f 33/16/28 41/48/29 29/44/30 28/33/28
f 20/42/31 19/6/32 31/34/32 30/45/33
f 8/28/34 7/53/29 47/50/35 46/37/34
f 40/47/36 39/22/37 49/38/37 48/51/38
f 47/50/35 7/53/29 10/25/39 53/36/39
f 48/51/26 47/50/25 53/36/40 52/35/40
f 37/19/41 40/47/36 48/51/38 52/35/41
f 41/48/23 40/47/22 37/19/42 26/13/42
f 29/44/30 41/48/29 26/13/43 51/32/43
f 30/45/21 29/44/20 51/32/40 50/31/40
f 15/1/44 20/42/31 30/45/33 50/31/44
f 2/39/15 20/42/14 15/1/42 18/4/42
f 3/40/9 2/39/8 18/4/45 17/3/45
f 5/41/12 3/40/11 17/3/46 25/12/46
f 24/11/47 23/43/16 5/41/18 25/12/47
f 36/18/47 35/46/16 23/43/18 24/11/47
f 45/24/47 44/49/16 35/46/24 36/18/47
f 12/30/47 14/52/27 44/49/24 45/24/47
